# Blender v3.4.1 OBJ File: 'space_debris.blend'
# www.blender.org
mtllib space_debris_03.mtl
o st_space_debris_012.mo_space_debris_03
v 3.289464 -3.639391 0.016270
v -3.289464 -3.639391 0.016270
v -3.289464 -3.594202 -0.136773
v 3.289464 -3.594202 -0.136773
v 5.114664 -0.385638 0.556121
v 5.114664 -0.385638 0.709165
v 3.289464 -0.385638 0.709165
v 3.289464 -0.385638 0.556121
v -1.980325 -4.379216 -0.359561
v -1.794493 -4.251108 -0.823392
v -1.794493 -4.379216 -0.359561
v -1.980325 -4.251108 -0.823392
v -1.794494 5.045302 -0.733974
v -1.980324 4.939801 -1.152591
v -1.980325 5.045302 -0.733974
v -1.794493 4.939801 -1.152591
v 1.884336 -4.379216 -0.359561
v 2.070167 -4.251108 -0.823392
v 2.070167 -4.379216 -0.359561
v 1.884336 -4.251108 -0.823392
v 2.070167 3.707619 -0.344488
v 1.884336 3.617190 -0.755570
v 1.884336 3.707619 -0.344489
v 2.070167 3.617190 -0.755570
v -6.407414 -2.074661 0.346615
v 5.081299 -2.029712 0.051980
v 5.081299 -2.074660 0.346616
v -6.407414 -2.029712 0.051980
v -6.407414 -1.952268 0.063795
v 5.081299 -1.952268 0.063795
v -6.407414 -2.029712 0.051980
v 5.081299 -2.029712 0.051980
v -6.407414 -1.997216 0.358430
v -6.407414 -2.029712 0.051980
v -6.407414 -2.074661 0.346615
v -6.407414 -1.952268 0.063795
v -6.407414 -1.997216 0.358430
v 5.081299 -2.074660 0.346616
v 5.081299 -1.997216 0.358430
v -6.407414 -2.074661 0.346615
v 5.081299 -2.074660 0.346616
v 5.081299 -1.952268 0.063795
v 5.081299 -1.997216 0.358430
v 5.081299 -2.029712 0.051980
v -6.407414 -1.997216 0.358430
v 5.081299 -1.997216 0.358430
v 5.081299 -1.952268 0.063795
v -6.407414 -1.952268 0.063795
v -6.407414 1.798695 0.257503
v 6.501231 1.727973 -0.032029
v 6.501231 1.798695 0.257504
v -6.407414 1.727973 -0.032029
v -6.407414 1.807963 -0.051567
v 6.501231 1.807963 -0.051567
v -6.407414 1.727973 -0.032029
v 6.501231 1.727973 -0.032029
v -6.407414 1.878684 0.237965
v -6.407414 1.727973 -0.032029
v -6.407414 1.798695 0.257503
v -6.407414 1.807963 -0.051567
v -6.407414 1.878684 0.237965
v 6.501231 1.798695 0.257504
v 6.501231 1.878684 0.237965
v -6.407414 1.798695 0.257503
v 6.501231 1.798695 0.257504
v 6.501231 1.807963 -0.051567
v 6.501231 1.878684 0.237965
v 6.501231 1.727973 -0.032029
v -6.407414 1.878684 0.237965
v 6.501231 1.878684 0.237965
v 6.501231 1.807963 -0.051567
v -6.407414 1.807963 -0.051567
v 5.114664 1.375799 0.322646
v 5.114664 2.939024 -0.151836
v 5.114664 2.969151 0.001207
v 5.114664 1.398393 0.475689
v 5.114664 -0.385638 0.556121
v 5.114664 -0.385638 0.709165
v -3.289464 2.939024 -0.151836
v -3.289464 1.375799 0.322646
v -3.289464 2.969151 0.001207
v -3.289464 1.398393 0.475689
v -3.289464 -0.385638 0.556121
v -3.289464 -0.385638 0.709165
v -3.289464 -2.094860 0.475689
v -3.289464 -2.057204 0.322646
v -3.289464 -3.639391 0.016270
v -3.289464 -3.594202 -0.136773
v 3.289464 -0.385638 0.709165
v 3.289464 -2.094860 0.475689
v 3.289464 -0.385638 0.556121
v 3.289464 -2.057204 0.322646
v 3.289464 -3.639391 0.016270
v 3.289464 -3.594202 -0.136773
v 3.289464 -2.094860 0.475689
v -3.289464 -3.639391 0.016270
v 3.289464 -3.639391 0.016270
v -3.289464 -2.094860 0.475689
v 3.289464 -0.385638 0.709165
v -3.289464 -0.385638 0.709165
v 3.289464 1.398393 0.475689
v 5.114664 -0.385638 0.709165
v -3.289464 1.398393 0.475689
v 5.114664 1.398393 0.475689
v 3.289464 2.969151 0.001207
v -3.289464 2.969151 0.001207
v 5.114664 2.969151 0.001207
v -3.289464 -2.057204 0.322646
v 3.289464 -3.594202 -0.136773
v -3.289464 -3.594202 -0.136773
v 3.289464 -2.057204 0.322646
v -3.289464 -0.385638 0.556121
v 3.289464 -0.385638 0.556121
v -3.289464 1.375799 0.322646
v 5.114664 1.375799 0.322646
v 5.114664 -0.385638 0.556121
v 3.289464 1.375799 0.322646
v -3.289464 2.939024 -0.151836
v 5.114664 2.939024 -0.151836
v 3.289464 2.939024 -0.151836
v -1.980325 1.381618 0.341266
v -1.980325 5.045302 -0.733974
v -1.980324 4.939801 -1.152591
v -1.980324 1.306261 -0.077351
v -1.980325 -0.379432 0.574875
v -1.980325 -0.394504 0.141186
v -1.980325 -1.988319 -0.092422
v -1.980325 -2.048605 0.333730
v -1.980325 -4.251108 -0.823392
v -1.980325 -4.379216 -0.359561
v -1.794493 4.939801 -1.152591
v -1.794493 1.306261 -0.077351
v -1.980324 4.939801 -1.152591
v -1.980324 1.306261 -0.077351
v -1.794493 -0.394504 0.141186
v -1.980325 -0.394504 0.141186
v -1.794493 -1.988319 -0.092422
v -1.980325 -1.988319 -0.092422
v -1.794493 -4.251108 -0.823392
v -1.980325 -4.251108 -0.823392
v -1.794494 5.045302 -0.733974
v -1.794494 1.381618 0.341266
v -1.794493 4.939801 -1.152591
v -1.794493 1.306261 -0.077351
v -1.794493 -0.379432 0.574875
v -1.794493 -0.394504 0.141186
v -1.794493 -1.988319 -0.092422
v -1.794493 -2.048605 0.333730
v -1.794493 -4.251108 -0.823392
v -1.794493 -4.379216 -0.359561
v -1.794493 -2.048605 0.333730
v -1.980325 -4.379216 -0.359561
v -1.794493 -4.379216 -0.359561
v -1.980325 -2.048605 0.333730
v -1.794493 -0.379432 0.574875
v -1.980325 -0.379432 0.574875
v -1.794494 1.381618 0.341266
v -1.980325 1.381618 0.341266
v -1.980325 5.045302 -0.733974
v -1.794494 5.045302 -0.733974
v 1.884336 1.381618 0.341266
v 1.884336 3.707619 -0.344489
v 1.884336 3.617190 -0.755570
v 1.884336 1.306261 -0.077351
v 1.884336 -0.379432 0.574875
v 1.884336 -0.394504 0.141186
v 1.884336 -1.988319 -0.092422
v 1.884336 -2.048605 0.333730
v 1.884336 -4.251108 -0.823392
v 1.884336 -4.379216 -0.359561
v 2.070167 3.617190 -0.755570
v 2.070167 1.306261 -0.077351
v 1.884336 3.617190 -0.755570
v 1.884336 1.306261 -0.077351
v 2.070167 -0.394504 0.141186
v 1.884336 -0.394504 0.141186
v 2.070167 -1.988319 -0.092422
v 1.884336 -1.988319 -0.092422
v 2.070167 -4.251108 -0.823392
v 1.884336 -4.251108 -0.823392
v 2.070167 3.707619 -0.344488
v 2.070167 1.381618 0.341266
v 2.070167 3.617190 -0.755570
v 2.070167 1.306261 -0.077351
v 2.070167 -0.379432 0.574875
v 2.070167 -0.394504 0.141186
v 2.070167 -1.988319 -0.092422
v 2.070167 -2.048605 0.333730
v 2.070167 -4.251108 -0.823392
v 2.070167 -4.379216 -0.359561
v 2.070167 -2.048605 0.333730
v 1.884336 -4.379216 -0.359561
v 2.070167 -4.379216 -0.359561
v 1.884336 -2.048605 0.333730
v 2.070167 -0.379432 0.574875
v 1.884336 -0.379432 0.574875
v 2.070167 1.381618 0.341266
v 1.884336 1.381618 0.341266
v 1.884336 3.707619 -0.344489
v 2.070167 3.707619 -0.344488
v -3.289464 2.969151 0.001207
v 3.289464 2.939024 -0.151836
v -3.289464 2.939024 -0.151836
v 3.289464 2.969151 0.001207
v 5.114664 2.969151 0.001207
v 5.114664 2.939024 -0.151836
vt 0.951172 0.977036
vt 0.745605 0.977036
vt 0.745605 0.972046
vt 0.951172 0.972046
vt 0.914551 0.979950
vt 0.914551 0.984734
vt 0.857422 0.984734
vt 0.857422 0.979950
vt 0.716309 0.987625
vt 0.730469 0.993427
vt 0.716309 0.993427
vt 0.730469 0.987625
vt 0.716309 0.520752
vt 0.730469 0.526611
vt 0.716309 0.526611
vt 0.730469 0.520752
vt 0.670898 0.987625
vt 0.687012 0.993427
vt 0.670898 0.993427
vt 0.687012 0.987625
vt 0.670898 0.520752
vt 0.687012 0.526611
vt 0.670898 0.526611
vt 0.687012 0.520752
vt 0.592285 0.986893
vt 0.583008 0.525879
vt 0.592285 0.525879
vt 0.583008 0.986893
vt 0.577148 0.986893
vt 0.577148 0.525879
vt 0.583008 0.986893
vt 0.583008 0.525879
vt 0.598145 0.986893
vt 0.607422 0.992699
vt 0.598145 0.992695
vt 0.607422 0.986893
vt 0.598145 0.986893
vt 0.592285 0.525879
vt 0.598145 0.525879
vt 0.592285 0.986893
vt 0.598145 0.520020
vt 0.607422 0.525879
vt 0.598145 0.525879
vt 0.607422 0.520020
vt 0.598145 0.986893
vt 0.598145 0.525879
vt 0.607422 0.525879
vt 0.607422 0.986893
vt 0.625488 0.986893
vt 0.616211 0.525879
vt 0.625488 0.525879
vt 0.616211 0.986893
vt 0.610352 0.986893
vt 0.610352 0.525879
vt 0.616211 0.986893
vt 0.616211 0.525879
vt 0.631348 0.986893
vt 0.640625 0.992699
vt 0.631348 0.992695
vt 0.640625 0.986893
vt 0.631348 0.986893
vt 0.625488 0.525879
vt 0.631348 0.525879
vt 0.625488 0.986893
vt 0.631348 0.520020
vt 0.640625 0.525879
vt 0.631348 0.525879
vt 0.640625 0.520020
vt 0.631348 0.986893
vt 0.631348 0.525879
vt 0.640625 0.525879
vt 0.640625 0.986893
vt 0.800781 0.978104
vt 0.851562 0.978104
vt 0.851562 0.982971
vt 0.800781 0.982971
vt 0.745117 0.978104
vt 0.745117 0.982971
vt 0.956055 0.969604
vt 0.905273 0.969604
vt 0.956055 0.964752
vt 0.905273 0.964752
vt 0.849609 0.969604
vt 0.849609 0.964752
vt 0.796875 0.964752
vt 0.796875 0.969604
vt 0.746582 0.964752
vt 0.746582 0.969604
vt 0.846680 0.990753
vt 0.793945 0.990753
vt 0.846680 0.985970
vt 0.793945 0.985970
vt 0.744141 0.990753
vt 0.744141 0.985970
vt 0.939453 0.580566
vt 0.733887 0.530273
vt 0.939453 0.530273
vt 0.733887 0.580811
vt 0.939453 0.634521
vt 0.733887 0.634766
vt 0.939453 0.690674
vt 0.996582 0.634033
vt 0.733887 0.690918
vt 0.996582 0.690430
vt 0.939453 0.741943
vt 0.733887 0.742188
vt 0.996582 0.741455
vt 0.733887 0.903870
vt 0.939453 0.954041
vt 0.733887 0.953979
vt 0.939453 0.903931
vt 0.733887 0.851196
vt 0.939453 0.851196
vt 0.733887 0.795776
vt 0.996582 0.795654
vt 0.996582 0.851440
vt 0.939453 0.795654
vt 0.733887 0.744873
vt 0.996582 0.744629
vt 0.939453 0.744629
vt 0.716309 0.634766
vt 0.716309 0.526611
vt 0.730469 0.526611
vt 0.730469 0.634766
vt 0.716309 0.776978
vt 0.730469 0.776978
vt 0.730469 0.879883
vt 0.716309 0.879883
vt 0.730469 0.987625
vt 0.716309 0.987625
vt 0.695312 0.526611
vt 0.695312 0.634766
vt 0.689453 0.526611
vt 0.689453 0.634766
vt 0.695312 0.776978
vt 0.689453 0.776978
vt 0.695312 0.879883
vt 0.689453 0.879883
vt 0.695312 0.987625
vt 0.689453 0.987625
vt 0.710449 0.526611
vt 0.710449 0.634766
vt 0.695312 0.526611
vt 0.695312 0.634766
vt 0.710449 0.776978
vt 0.695312 0.776978
vt 0.695312 0.879883
vt 0.710449 0.879883
vt 0.695312 0.987625
vt 0.710449 0.987625
vt 0.710449 0.879883
vt 0.716309 0.987625
vt 0.710449 0.987625
vt 0.716309 0.879883
vt 0.710449 0.776978
vt 0.716309 0.776978
vt 0.710449 0.634766
vt 0.716309 0.634766
vt 0.716309 0.526611
vt 0.710449 0.526611
vt 0.670898 0.634766
vt 0.670898 0.526611
vt 0.687012 0.526611
vt 0.687012 0.634766
vt 0.670898 0.776978
vt 0.687012 0.776978
vt 0.687012 0.879883
vt 0.670898 0.879883
vt 0.687012 0.987625
vt 0.670898 0.987625
vt 0.648438 0.526611
vt 0.648438 0.634766
vt 0.642578 0.526611
vt 0.642578 0.634766
vt 0.648438 0.776978
vt 0.642578 0.776978
vt 0.648438 0.879883
vt 0.642578 0.879883
vt 0.648438 0.987625
vt 0.642578 0.987625
vt 0.665039 0.526611
vt 0.665039 0.634766
vt 0.648438 0.526611
vt 0.648438 0.634766
vt 0.665039 0.776978
vt 0.648438 0.776978
vt 0.648438 0.879883
vt 0.665039 0.879883
vt 0.648438 0.987625
vt 0.665039 0.987625
vt 0.665039 0.879883
vt 0.670898 0.987625
vt 0.665039 0.987625
vt 0.670898 0.879883
vt 0.665039 0.776978
vt 0.670898 0.776978
vt 0.665039 0.634766
vt 0.670898 0.634766
vt 0.670898 0.526611
vt 0.665039 0.526611
vt 0.734863 0.957916
vt 0.940430 0.962799
vt 0.734863 0.962799
vt 0.940430 0.957916
vt 0.997559 0.957916
vt 0.997559 0.962799
vn 0.0000 -0.9591 -0.2832
vn 0.0000 -1.0000 0.0000
vn -0.0000 -0.9639 -0.2662
vn 0.0000 0.9697 -0.2444
vn 0.0000 0.9766 -0.2148
vn 0.0000 -0.9886 -0.1508
vn 0.0000 0.1508 -0.9886
vn -1.0000 0.0000 0.0000
vn -0.0000 -0.1508 0.9886
vn 1.0000 0.0000 0.0000
vn 0.0000 0.9886 0.1508
vn 0.0000 -0.9714 0.2373
vn 0.0000 -0.2373 -0.9714
vn -0.0000 0.2373 0.9714
vn 0.0000 0.9714 -0.2373
vn 0.0000 -0.2851 0.9585
vn 0.0000 -0.1353 0.9908
vn 0.0000 0.1298 0.9915
vn 0.0000 0.2892 0.9573
vn 0.0000 0.2864 -0.9581
vn 0.0000 0.1383 -0.9904
vn 0.0000 -0.1314 -0.9913
vn 0.0000 -0.2904 -0.9569
vn -0.0000 -0.2838 -0.9589
vn -0.0000 -0.1274 -0.9918
vn -0.0000 0.1450 -0.9894
vn -0.0000 0.3074 -0.9516
vn 0.0000 -0.1430 0.9897
vn -0.0000 0.1315 0.9913
vn -0.0000 0.2816 0.9595
vn -0.0000 -0.2816 -0.9595
vn -0.0000 0.2828 0.9592
vn 0.0000 0.9812 -0.1931
usemtl MI_space_debris_012
s off
f 1/1/1 2/2/1 3/3/1
f 1/1/1 3/3/1 4/4/1
f 5/5/2 6/6/2 7/7/2
f 7/7/2 8/8/2 5/5/2
f 9/9/3 10/10/3 11/11/3
f 10/10/3 9/9/3 12/12/3
f 13/13/4 14/14/4 15/15/4
f 14/14/4 13/13/4 16/16/4
f 17/17/3 18/18/3 19/19/3
f 18/18/3 17/17/3 20/20/3
f 21/21/5 22/22/5 23/23/5
f 22/22/5 21/21/5 24/24/5
f 25/25/6 26/26/6 27/27/6
f 26/26/6 25/25/6 28/28/6
f 29/29/7 30/30/7 31/31/7
f 32/32/7 31/31/7 30/30/7
f 33/33/8 34/34/8 35/35/8
f 34/34/8 33/33/8 36/36/8
f 37/37/9 38/38/9 39/39/9
f 38/38/9 37/37/9 40/40/9
f 41/41/10 42/42/10 43/43/10
f 42/42/10 41/41/10 44/44/10
f 45/45/11 46/46/11 47/47/11
f 45/45/11 47/47/11 48/48/11
f 49/49/12 50/50/12 51/51/12
f 50/50/12 49/49/12 52/52/12
f 53/53/13 54/54/13 55/55/13
f 56/56/13 55/55/13 54/54/13
f 57/57/8 58/58/8 59/59/8
f 58/58/8 57/57/8 60/60/8
f 61/61/14 62/62/14 63/63/14
f 62/62/14 61/61/14 64/64/14
f 65/65/10 66/66/10 67/67/10
f 66/66/10 65/65/10 68/68/10
f 69/69/15 70/70/15 71/71/15
f 69/69/15 71/71/15 72/72/15
f 73/73/10 74/74/10 75/75/10
f 75/75/10 76/76/10 73/73/10
f 77/77/10 73/73/10 76/76/10
f 76/76/10 78/78/10 77/77/10
f 79/79/8 80/80/8 81/81/8
f 82/82/8 81/81/8 80/80/8
f 80/80/8 83/83/8 82/82/8
f 84/84/8 82/82/8 83/83/8
f 85/85/8 84/84/8 83/83/8
f 83/83/8 86/86/8 85/85/8
f 87/87/8 85/85/8 86/86/8
f 86/86/8 88/88/8 87/87/8
f 89/89/10 90/90/10 91/91/10
f 92/92/10 91/91/10 90/90/10
f 90/90/10 93/93/10 92/92/10
f 94/94/10 92/92/10 93/93/10
f 95/95/16 96/96/16 97/97/16
f 98/98/16 96/96/16 95/95/16
f 99/99/17 98/98/17 95/95/17
f 99/99/17 100/100/17 98/98/17
f 99/99/18 101/101/18 100/100/18
f 102/102/18 101/101/18 99/99/18
f 100/100/18 101/101/18 103/103/18
f 101/101/18 102/102/18 104/104/18
f 101/101/19 105/105/19 103/103/19
f 104/104/19 105/105/19 101/101/19
f 103/103/19 105/105/19 106/106/19
f 105/105/19 104/104/19 107/107/19
f 108/108/20 109/109/20 110/110/20
f 109/109/20 108/108/20 111/111/20
f 112/112/21 111/111/21 108/108/21
f 113/113/21 111/111/21 112/112/21
f 113/113/22 112/112/22 114/114/22
f 115/115/22 116/116/22 113/113/22
f 113/113/22 114/114/22 117/117/22
f 113/113/22 117/117/22 115/115/22
f 114/114/23 118/118/23 117/117/23
f 119/119/23 115/115/23 117/117/23
f 117/117/23 118/118/23 120/120/23
f 117/117/23 120/120/23 119/119/23
f 121/121/8 122/122/8 123/123/8
f 123/123/8 124/124/8 121/121/8
f 124/124/8 125/125/8 121/121/8
f 125/125/8 124/124/8 126/126/8
f 126/126/8 127/127/8 125/125/8
f 128/128/8 125/125/8 127/127/8
f 127/127/8 129/129/8 128/128/8
f 130/130/8 128/128/8 129/129/8
f 131/131/24 132/132/24 133/133/24
f 134/134/24 133/133/24 132/132/24
f 132/132/25 135/135/25 134/134/25
f 136/136/25 134/134/25 135/135/25
f 135/135/26 137/137/26 136/136/26
f 138/138/26 136/136/26 137/137/26
f 137/137/27 139/139/27 138/138/27
f 140/140/27 138/138/27 139/139/27
f 141/141/10 142/142/10 143/143/10
f 144/144/10 143/143/10 142/142/10
f 142/142/10 145/145/10 144/144/10
f 146/146/10 144/144/10 145/145/10
f 145/145/10 147/147/10 146/146/10
f 147/147/10 145/145/10 148/148/10
f 149/149/10 147/147/10 148/148/10
f 148/148/10 150/150/10 149/149/10
f 151/151/16 152/152/16 153/153/16
f 152/152/16 151/151/16 154/154/16
f 151/151/28 155/155/28 154/154/28
f 156/156/28 154/154/28 155/155/28
f 155/155/29 157/157/29 156/156/29
f 158/158/29 156/156/29 157/157/29
f 157/157/30 159/159/30 158/158/30
f 159/159/30 157/157/30 160/160/30
f 161/161/8 162/162/8 163/163/8
f 163/163/8 164/164/8 161/161/8
f 164/164/8 165/165/8 161/161/8
f 165/165/8 164/164/8 166/166/8
f 166/166/8 167/167/8 165/165/8
f 168/168/8 165/165/8 167/167/8
f 167/167/8 169/169/8 168/168/8
f 170/170/8 168/168/8 169/169/8
f 171/171/31 172/172/31 173/173/31
f 174/174/31 173/173/31 172/172/31
f 172/172/25 175/175/25 174/174/25
f 176/176/25 174/174/25 175/175/25
f 175/175/26 177/177/26 176/176/26
f 178/178/26 176/176/26 177/177/26
f 177/177/27 179/179/27 178/178/27
f 180/180/27 178/178/27 179/179/27
f 181/181/10 182/182/10 183/183/10
f 184/184/10 183/183/10 182/182/10
f 182/182/10 185/185/10 184/184/10
f 186/186/10 184/184/10 185/185/10
f 185/185/10 187/187/10 186/186/10
f 187/187/10 185/185/10 188/188/10
f 189/189/10 187/187/10 188/188/10
f 188/188/10 190/190/10 189/189/10
f 191/191/16 192/192/16 193/193/16
f 192/192/16 191/191/16 194/194/16
f 191/191/28 195/195/28 194/194/28
f 196/196/28 194/194/28 195/195/28
f 195/195/29 197/197/29 196/196/29
f 198/198/29 196/196/29 197/197/29
f 197/197/32 199/199/32 198/198/32
f 199/199/32 197/197/32 200/200/32
f 201/201/33 202/202/33 203/203/33
f 204/204/33 202/202/33 201/201/33
f 205/205/33 202/202/33 204/204/33
f 202/202/33 205/205/33 206/206/33
